<?xml version="1.0" encoding="UTF-8"?>
<!DOCTYPE svg PUBLIC "-//W3C//DTD SVG 1.1//EN" "http://www.w3.org/Graphics/SVG/1.1/DTD/svg11.dtd">
<!-- Creator: CorelDRAW -->
<svg xmlns="http://www.w3.org/2000/svg" xml:space="preserve" width="29.2782mm" height="6.6957mm" version="1.1" style="shape-rendering:geometricPrecision; text-rendering:geometricPrecision; image-rendering:optimizeQuality; fill-rule:evenodd; clip-rule:evenodd"
viewBox="0 0 998.04 228.24"
 xmlns:xlink="http://www.w3.org/1999/xlink"
 xmlns:xodm="http://www.corel.com/coreldraw/odm/2003">
 <defs>
  <style type="text/css">
   <![CDATA[
    .fil1 {fill:#43C8DD;fill-rule:nonzero}
    .fil0 {fill:white;fill-rule:nonzero}
   ]]>
  </style>
 </defs>
 <g id="Camada_x0020_1">
  <metadata id="CorelCorpID_0Corel-Layer"/>
  <path class="fil0" d="M49.53 0.01c25.03,48.66 50.07,97.34 75.1,146 18.67,-36.6 37.33,-73.2 56,-109.81 13.25,-24.17 35.62,-36.61 67.99,-36.19 0,63.1 0,126.2 0,189.3 -2.12,31.55 -18.55,38.57 -39.82,37.31 0,-54.17 0,-108.34 0,-162.51 -23.52,46.4 -47.05,92.8 -70.57,139.2 -9.28,0 -18.56,0 -27.84,0 -23.63,-46.4 -47.26,-92.81 -70.9,-139.2 0,40.36 0,80.73 0,121.1 1.91,24.77 -11.35,38.5 -39.49,41.41 0,-62.98 0,-125.97 0,-188.95 0.49,-28.58 21.7,-36.43 49.53,-37.66z"/>
  <path class="fil0" d="M721.26 51.81c19.64,0 35.07,5.99 46.29,17.96 11.23,11.98 16.84,28.22 16.84,48.72l0 64.61c2.43,26.56 -9.88,42.39 -42.41,43.52l0 -95.82c0,-12.3 -3.4,-21.96 -10.2,-28.98 -6.8,-7.02 -16.02,-10.52 -27.68,-10.52 -13.38,0.43 -24.01,5.29 -31.89,14.57 -7.88,9.28 -11.82,21.04 -11.82,35.29l0 44.33c-0.94,26.12 -14.45,40.44 -42.41,41.13l0 -95.82c0,-12.3 -3.34,-21.96 -10.04,-28.98 -6.69,-7.02 -15.86,-10.52 -27.52,-10.52 -63.25,2.01 -35.32,136.94 -204.59,136.94 -17.7,0 -33.29,-3.67 -46.78,-11.01 -13.49,-7.34 -23.9,-17.64 -31.24,-30.91 -7.34,-13.27 -11.01,-28.54 -11.01,-45.81 0,-17.27 3.72,-32.59 11.17,-45.97 7.44,-13.38 17.86,-23.79 31.24,-31.24 13.38,-7.44 28.59,-11.17 45.64,-11.17 27.63,0 48.4,7.88 62.32,23.63 13.92,15.75 20.88,37.88 20.88,66.36 0,5.61 -0.11,9.82 -0.32,12.63l-127.87 0c2.81,12.3 8.58,21.96 17.32,28.97 8.74,7.02 19.48,10.52 32.21,10.52 163.86,0 83.72,-139.61 217.86,-142.44 15.1,-0.32 27.79,3.61 38.04,10.84 10.25,7.23 17.43,17.43 21.53,30.59 11,-27.2 32.48,-41.01 64.42,-41.44zm-301.71 74.78c-0.43,-12.74 -4.64,-22.88 -12.63,-30.43 -7.98,-7.56 -18.56,-11.33 -31.72,-11.33 -12.3,0 -22.61,3.72 -30.92,11.17 -8.31,7.44 -13.43,17.64 -15.37,30.59l90.64 0z"/>
  <path class="fil1" d="M907.07 52.14c17.91,0 33.72,3.67 47.43,11.01 13.7,7.34 24.39,17.64 32.05,30.91 7.66,13.27 11.49,28.54 11.49,45.81 0,17.48 -3.83,32.91 -11.49,46.29 -7.66,13.38 -18.34,23.74 -32.05,31.08 -13.7,7.34 -29.51,11.01 -47.43,11.01 -18.13,0 -34.1,-3.67 -47.91,-11.01 -13.81,-7.34 -24.55,-17.7 -32.21,-31.08 -7.66,-13.38 -11.49,-28.81 -11.49,-46.29 0,-17.27 3.83,-32.53 11.49,-45.81 7.66,-13.27 18.39,-23.58 32.21,-30.91 13.81,-7.34 29.78,-11.01 47.91,-11.01zm0 35.94c-14.67,0 -26.54,4.85 -35.61,14.57 -9.06,9.71 -13.6,22.34 -13.6,37.88 0,15.54 4.53,28.16 13.6,37.88 9.06,9.71 20.93,14.57 35.61,14.57 14.25,0 25.9,-4.86 34.96,-14.57 9.06,-9.71 13.59,-22.34 13.59,-37.88 0,-15.54 -4.53,-28.16 -13.59,-37.88 -9.06,-9.71 -20.72,-14.57 -34.96,-14.57z"/>
 </g>
</svg>
